<svg xmlns="http://www.w3.org/2000/svg" xmlns:xlink="http://www.w3.org/1999/xlink" version="1.1" width="595.276pt" height="841.89pt" viewBox="0 0 595.276 841.89">
<defs>
<clipPath id="clip_0">
<path transform="matrix(1,0,0,-1,0,841.89)" d="M0 841.89H595.276V0H0Z"/>
</clipPath>
</defs>
<g id="layer_1" data-name="">
<g clip-path="url(#clip_0)">
<path transform="matrix(1,0,0,-1,127.9419,108.5437)" d="M0 0H21.924C31.598 0 37.358-1.576 41.854-6.938 48.748-15.207 49.356-31.927 49.356-65.614V-124.358C49.356-158.058 48.748-174.752 41.854-183.033 37.358-188.396 31.598-189.959 21.924-189.959H0ZM-34.206-218.955H27.926C52.059-218.955 66.779-213.472 75.705-201.918 88.88-186.142 89.298-160.685 89.298-121.636V-68.336C89.298-29.299 88.88-3.83 75.705 11.947 66.779 23.5 52.059 28.99 27.926 28.99H-34.206C-36.061 28.99-37.213 28.426-38.023 27.609-38.853 26.78-39.41 25.653-39.41 23.772V-213.764C-39.41-215.618-38.853-216.765-38.023-217.581-37.213-218.404-36.061-218.955-34.206-218.955" fill="#990000"/>
<path transform="matrix(1,0,0,-1,441.3799,330.63264)" d="M0 0C24.412 0 40.145 6.534 49.824 17.777 61.188 30.984 63.986 46.729 63.986 70.444V245.861C63.986 247.742 63.416 248.869 62.581 249.698 61.789 250.515 60.638 251.079 58.789 251.079H29.736C27.881 251.079 26.735 250.515 25.918 249.698 25.108 248.869 24.532 247.742 24.532 245.861V70.508C24.532 52.205 23.158 41.322 17.2 34.789 13.168 30.37 7.477 28.198-.532 28.198-7.762 28.198-13.283 30.211-17.474 34.827-23.09 41.025-24.817 51.541-24.817 70.508V245.861C-24.817 247.742-25.368 248.869-26.197 249.698-27.021 250.515-28.154 251.079-30.027 251.079H-59.049C-60.93 251.079-62.056 250.515-62.886 249.698-63.715 248.869-64.247 247.742-64.247 245.861V70.444C-64.247 44.912-60.783 28.895-50.635 17.752-40.094 6.147-24.166 0 0 0" fill="#990000"/>
<path transform="matrix(1,0,0,-1,238.4038,110.892337)" d="M0 0H37.314V-211.415C37.314-213.27 37.846-214.416 38.675-215.232 39.499-216.055 40.632-216.606 42.5-216.606H74.262C76.129-216.606 77.262-216.055 78.08-215.232 78.915-214.416 79.459-213.27 79.459-211.415V0H116.767C118.628 0 119.762 .551 120.611 1.374 121.415 2.19 121.978 3.336 121.978 5.191V26.121C121.978 28.001 121.415 29.128 120.611 29.958 119.762 30.774 118.628 31.338 116.767 31.338H0C-1.874 31.338-3.007 30.774-3.836 29.958-4.666 29.128-5.223 28.001-5.223 26.121V5.191C-5.223 3.336-4.666 2.19-3.836 1.374-3.007 .551-1.874 0 0 0" fill="#990000"/>
<path transform="matrix(1,0,0,-1,432.0625,503.85774)" d="M0 0 99.604 52.275 0 104.587C-129.005 54.396-139.876 54.396-268.855 104.587L-368.454 52.275-268.855 0C-139.876 50.167-129.005 50.167 0 0" fill="#990000"/>
<path transform="matrix(1,0,0,-1,163.207,528.5227)" d="M0 0-99.598-52.3 0-104.574C128.979-54.407 139.851-54.407 268.855-104.574L368.46-52.3 268.855 0C139.851-50.179 128.979-50.179 0 0" fill="#990000"/>
<path transform="matrix(1,0,0,-1,163.207,657.7746)" d="M0 0-99.598-52.274 0-104.562C128.979-54.396 139.851-54.396 268.855-104.562L368.46-52.274 268.855 0C139.851-50.166 128.979-50.166 0 0" fill="#990000"/>
</g>
</g>
</svg>
