<?xml version="1.0" encoding="UTF-8" standalone="no"?>
<svg
   viewBox="0 0 512 512"
   version="1.1"
   id="svg1"
   sodipodi:docname="gitlab_white.svg"
   inkscape:version="1.3.2 (1:1.3.2+202311252150+091e20ef0f)"
   xmlns:inkscape="http://www.inkscape.org/namespaces/inkscape"
   xmlns:sodipodi="http://sodipodi.sourceforge.net/DTD/sodipodi-0.dtd"
   xmlns="http://www.w3.org/2000/svg"
   xmlns:svg="http://www.w3.org/2000/svg">
  <defs
     id="defs1" />
  <sodipodi:namedview
     id="namedview1"
     pagecolor="#ffffff"
     bordercolor="#000000"
     borderopacity="0.25"
     inkscape:showpageshadow="2"
     inkscape:pageopacity="0.0"
     inkscape:pagecheckerboard="0"
     inkscape:deskcolor="#d1d1d1"
     inkscape:zoom="0.55449878"
     inkscape:cx="170.42418"
     inkscape:cy="309.28833"
     inkscape:window-width="1920"
     inkscape:window-height="1003"
     inkscape:window-x="1920"
     inkscape:window-y="40"
     inkscape:window-maximized="1"
     inkscape:current-layer="svg1" />
  <!--! Font Awesome Free 6.7.2 by @fontawesome - https://fontawesome.com License - https://fontawesome.com/license/free (Icons: CC BY 4.0, Fonts: SIL OFL 1.1, Code: MIT License) Copyright 2024 Fonticons, Inc. -->
  <path
     d="M503.5 204.6L502.8 202.8L433.1 21.02C431.7 17.45 429.2 14.43 425.9 12.38C423.5 10.83 420.8 9.865 417.9 9.57C415 9.275 412.2 9.653 409.5 10.68C406.8 11.7 404.4 13.34 402.4 15.46C400.5 17.58 399.1 20.13 398.3 22.9L351.3 166.9H160.8L113.7 22.9C112.9 20.13 111.5 17.59 109.6 15.47C107.6 13.35 105.2 11.72 102.5 10.7C99.86 9.675 96.98 9.295 94.12 9.587C91.26 9.878 88.51 10.83 86.08 12.38C82.84 14.43 80.33 17.45 78.92 21.02L9.267 202.8L8.543 204.6C-1.484 230.8-2.72 259.6 5.023 286.6C12.77 313.5 29.07 337.3 51.47 354.2L51.74 354.4L52.33 354.8L158.3 434.3L210.9 474L242.9 498.2C246.6 500.1 251.2 502.5 255.9 502.5C260.6 502.5 265.2 500.1 268.9 498.2L300.9 474L353.5 434.3L460.2 354.4L460.5 354.1C482.9 337.2 499.2 313.5 506.1 286.6C514.7 259.6 513.5 230.8 503.5 204.6z"
     id="path1" />
  <path
     style="fill:#ffffff;fill-rule:evenodd;stroke:#000000;stroke-width:0.638613"
     d="m 252.62646,501.75719 c -1.50476,-0.29643 -4.51746,-1.49113 -6.69489,-2.65489 -2.17743,-1.16377 -23.4698,-16.8569 -47.31638,-34.87364 C 174.76862,446.21193 130.74368,413.07892 100.782,390.59974 70.820312,368.12057 43.872555,347.43313 40.898092,344.62765 22.989306,327.73628 9.3943507,304.26231 3.8989625,280.74245 1.6486066,271.11109 0.61122394,261.80385 0.60116649,251.15512 0.58797391,237.18697 2.230053,225.48685 5.8709822,213.60671 7.4815576,208.35149 78.734346,22.273116 80.345068,19.115844 83.03623,13.84073 89.646775,9.9759237 95.960149,9.9866053 c 7.191991,0.012168 13.840651,4.4595817 16.539781,11.0637637 0.64288,1.572982 11.67931,34.995459 24.52541,74.272171 l 23.35654,71.4122 95.63243,0.16147 95.63243,0.16146 23.52938,-72.211277 c 12.94116,-39.716201 24.1761,-73.502433 24.96653,-75.080515 5.29465,-10.5707611 18.86491,-13.0463861 27.92233,-5.093873 1.31791,1.157142 2.95562,3.200443 3.63935,4.540669 1.74633,3.423095 72.15497,187.206086 74.10444,193.429916 4.24856,13.56382 5.8834,26.25829 5.33737,41.44458 -0.44643,12.41597 -1.68335,19.82345 -5.46111,32.70447 -6.42091,21.89333 -15.16204,37.37872 -30.13376,53.38353 -6.45481,6.90021 -12.30678,11.45574 -76.72686,59.72872 -34.36712,25.7529 -77.40573,58.11941 -95.64135,71.92558 -18.23561,13.80617 -34.59834,25.89726 -36.3616,26.86909 -2.712,1.49473 -9.98913,3.89589 -11.11482,3.66744 -0.18934,-0.0384 -1.57541,-0.31238 -3.08018,-0.60881 z"
     id="path4" />
  <path
     style="fill:#ffffff;fill-rule:evenodd;stroke:#000000;stroke-width:0.638613"
     d="m 252.17435,500.90636 c -6.09532,-1.92771 -3.9123,-0.35855 -79.38232,-57.05992 C 54.148932,354.70869 44.323366,347.14998 36.546252,339.03384 20.766969,322.56669 9.2138289,300.95223 4.2227417,278.56063 -0.38199447,257.90233 0.58345479,232.03141 6.6326603,213.98259 8.9667816,207.01835 25.782938,162.70282 54.079393,88.946451 80.681821,19.605668 80.789519,19.339582 83.445888,16.392708 90.23884,8.8568722 101.96026,9.0075555 108.73662,16.71783 c 2.35115,2.675174 3.30787,5.232399 13.81041,36.913847 6.20635,18.721756 17.10946,51.870843 24.22914,73.664643 l 12.94488,39.6251 12.75218,0.4221 c 7.01369,0.23216 50.32663,0.33362 96.25097,0.22547 l 83.4988,-0.19664 8.83896,-27.09838 C 382.24362,75.335508 400.0075,21.829197 401.07016,19.765878 405.045,12.048114 415.12915,8.641533 423.05355,12.33955 c 5.41845,2.528587 7.28389,5.277358 12.40214,18.274854 12.11131,30.755985 65.41473,170.250856 69.08383,180.792146 7.18682,20.64768 8.0343,46.10272 2.28072,68.50379 -6.41161,24.96307 -16.03869,43.07805 -31.47365,59.22298 -8.41622,8.80335 -7.3523,7.98515 -137.70466,105.90078 -36.10516,27.1208 -67.35918,50.41799 -69.45339,51.77154 -3.39047,2.19137 -10.78068,5.06411 -12.73391,4.94996 -0.40142,-0.0235 -1.87754,-0.40562 -3.28028,-0.84924 z"
     id="path5" />
  <path
     style="fill:#ffffff;fill-rule:evenodd;stroke:#000000;stroke-width:0.638613"
     d="m 207.41362,167.21596 c 3.08571,-0.11714 7.96342,-0.11654 10.83936,0.001 2.87593,0.11787 0.35125,0.2137 -5.61039,0.21297 -5.96164,-7.3e-4 -8.31468,-0.0972 -5.22897,-0.2143 z"
     id="path6" />
</svg>
